<mxfile host="app.diagrams.net" modified="2022-04-23T14:51:07.627Z" agent="5.0 (Macintosh; Intel Mac OS X 10_15_7) AppleWebKit/605.1.15 (KHTML, like Gecko) Version/15.3 Safari/605.1.15" etag="ikkhZf6JgGs_AwdN9pZm" version="17.4.6" type="github">
  <diagram id="0CAkdtYkMwlkif9qsINl" name="Page-1">
    <mxGraphModel dx="946" dy="645" grid="1" gridSize="10" guides="1" tooltips="1" connect="1" arrows="1" fold="1" page="1" pageScale="1" pageWidth="827" pageHeight="1169" math="0" shadow="0">
      <root>
        <mxCell id="0" />
        <mxCell id="1" parent="0" />
        <mxCell id="8nwbkUGyUSuey__rtpSS-1" value="" style="rounded=0;whiteSpace=wrap;html=1;fillColor=none;dashed=1;" parent="1" vertex="1">
          <mxGeometry x="100" y="110" width="670" height="110" as="geometry" />
        </mxCell>
        <mxCell id="1hi2flevJ8w-T847-RIj-7" style="edgeStyle=orthogonalEdgeStyle;rounded=0;orthogonalLoop=1;jettySize=auto;html=1;entryX=0;entryY=0.5;entryDx=0;entryDy=0;" parent="1" source="1hi2flevJ8w-T847-RIj-1" target="1hi2flevJ8w-T847-RIj-4" edge="1">
          <mxGeometry relative="1" as="geometry" />
        </mxCell>
        <mxCell id="1hi2flevJ8w-T847-RIj-1" value="转化为AADL语法" style="shape=process;whiteSpace=wrap;html=1;backgroundOutline=1;" parent="1" vertex="1">
          <mxGeometry x="320" y="140" width="100" height="50" as="geometry" />
        </mxCell>
        <mxCell id="1hi2flevJ8w-T847-RIj-6" style="edgeStyle=orthogonalEdgeStyle;rounded=0;orthogonalLoop=1;jettySize=auto;html=1;entryX=0;entryY=0.5;entryDx=0;entryDy=0;" parent="1" source="1hi2flevJ8w-T847-RIj-3" target="1hi2flevJ8w-T847-RIj-1" edge="1">
          <mxGeometry relative="1" as="geometry" />
        </mxCell>
        <mxCell id="1hi2flevJ8w-T847-RIj-3" value="S2MFM XML" style="shape=dataStorage;whiteSpace=wrap;html=1;fixedSize=1;" parent="1" vertex="1">
          <mxGeometry x="134" y="140" width="120" height="50" as="geometry" />
        </mxCell>
        <mxCell id="1hi2flevJ8w-T847-RIj-8" style="edgeStyle=orthogonalEdgeStyle;rounded=0;orthogonalLoop=1;jettySize=auto;html=1;entryX=0;entryY=0.5;entryDx=0;entryDy=0;" parent="1" source="1hi2flevJ8w-T847-RIj-4" target="1hi2flevJ8w-T847-RIj-5" edge="1">
          <mxGeometry relative="1" as="geometry" />
        </mxCell>
        <mxCell id="1hi2flevJ8w-T847-RIj-4" value="进行线程调度时序分析" style="shape=process;whiteSpace=wrap;html=1;backgroundOutline=1;" parent="1" vertex="1">
          <mxGeometry x="482" y="140" width="100" height="50" as="geometry" />
        </mxCell>
        <mxCell id="1hi2flevJ8w-T847-RIj-5" value="将调度结果转化为控制流图" style="shape=process;whiteSpace=wrap;html=1;backgroundOutline=1;" parent="1" vertex="1">
          <mxGeometry x="639" y="140" width="100" height="50" as="geometry" />
        </mxCell>
      </root>
    </mxGraphModel>
  </diagram>
</mxfile>
